<svg xmlns="http://www.w3.org/2000/svg" width="11.93" height="12.947" fill-rule="evenodd" clip-rule="evenodd" image-rendering="optimizeQuality" shape-rendering="geometricPrecision" text-rendering="geometricPrecision" viewBox="0 0 316 343"><path fill-rule="nonzero" d="M51 27l25 0 0 -19c0,-4 3,-8 8,-8 5,0 9,4 9,8l0 19 130 0 0 -19c0,-4 4,-8 9,-8 4,0 8,4 8,8l0 19 25 0c28,0 51,23 51,50l0 215c0,28 -23,51 -51,51l-214 0c-28,0 -51,-23 -51,-51l0 -215c0,-27 23,-50 51,-50zm189 17l0 20c0,5 -4,9 -8,9 -5,0 -9,-4 -9,-9l0 -20 -130 0 0 20c0,5 -4,9 -9,9 -5,0 -8,-4 -8,-9l0 -20 -25 0c-19,0 -34,15 -34,33l0 30 282 0 0 -30c0,-18 -15,-33 -34,-33l-25 0zm59 80l-282 0 0 168c0,18 15,34 34,34l214 0c19,0 34,-16 34,-34l0 -168z"/><path d="M138 150l40 0c5 0 9 4 9 9l0 39c0 5-4 9-9 9l-40 0c-5 0-9-4-9-9l0-39c0-5 4-9 9-9zM223 150l39 0c5 0 9 4 9 9l0 39c0 5-4 9-9 9l-39 0c-5 0-9-4-9-9l0-39c0-5 4-9 9-9zM53 232l40 0c5 0 9 4 9 9l0 39c0 5-4 9-9 9l-40 0c-5 0-9-4-9-9l0-39c0-5 4-9 9-9zM138 232l40 0c5 0 9 4 9 9l0 39c0 5-4 9-9 9l-40 0c-5 0-9-4-9-9l0-39c0-5 4-9 9-9zM223 232l39 0c5 0 9 4 9 9l0 39c0 5-4 9-9 9l-39 0c-5 0-9-4-9-9l0-39c0-5 4-9 9-9z"/></svg>